<svg width="111" height="30" viewBox="0 0 111 30" fill="none" xmlns="http://www.w3.org/2000/svg">
<rect y="4" width="22" height="22" rx="5" fill="#C4FF46"/>
<path d="M17.3319 14.9652C17.3322 14.9652 17.3325 14.9655 17.3325 14.9659V19.9747C17.3325 20.6481 16.7866 21.194 16.1133 21.194V21.194C15.4399 21.194 14.894 20.6481 14.894 19.9747V14.9652C14.894 12.8747 13.1986 11.1815 11.1083 11.1815C9.01797 11.1815 7.32258 12.876 7.32258 14.9652C7.32258 16.6369 8.40671 18.0546 9.90999 18.5555C10.5486 18.7683 11.1083 19.2946 11.1083 19.9678V19.9678C11.1083 20.6408 10.5575 21.1988 9.89722 21.0689C7.03829 20.5065 4.88278 17.9869 4.88278 14.9652C4.88278 11.5295 7.66945 8.74423 11.107 8.74423C14.5443 8.74423 17.3309 11.5291 17.3312 14.9646C17.3312 14.9649 17.3315 14.9652 17.3319 14.9652V14.9652Z" fill="#0F0F0F"/>
<path d="M52.2059 15.89V23H49.4159V21.53V15.89C49.4159 13.49 47.4959 11.54 45.0959 11.54C42.6959 11.54 40.7759 13.49 40.7759 15.89C40.7759 18.26 42.6959 20.21 45.0959 20.21V23C41.1659 23 37.9859 19.82 37.9859 15.89C37.9859 11.96 41.1659 8.75 45.0959 8.75C49.0259 8.75 52.2059 11.96 52.2059 15.89ZM54.0113 23V14.3C54.0113 11.24 56.4713 8.75 59.5313 8.75C61.1813 8.75 62.6813 9.47 63.6713 10.61C64.6913 9.47 66.1613 8.75 67.8113 8.75C70.8713 8.75 73.3613 11.24 73.3613 14.3V23H70.5713V14.3C70.5713 12.77 69.3413 11.54 67.8113 11.54C66.3113 11.54 65.0813 12.77 65.0813 14.3V23H62.2913V14.3C62.2913 12.77 61.0613 11.54 59.5313 11.54C58.0313 11.54 56.8013 12.77 56.8013 14.3V23H54.0113ZM77.9537 8.81V23H75.1637V8.81H77.9537ZM91.1933 23V15.89C91.1933 13.49 89.2733 11.54 86.8733 11.54C84.4733 11.54 82.5533 13.49 82.5533 15.89V23H79.7633V15.89C79.7633 11.96 82.9433 8.75 86.8733 8.75C90.8033 8.75 93.9833 11.96 93.9833 15.89V23H91.1933ZM107.219 15.92C107.219 13.52 105.299 11.6 102.899 11.6C100.499 11.6 98.5787 13.52 98.5787 15.92C98.5787 18.32 100.499 20.24 102.899 20.24C105.299 20.24 107.219 18.32 107.219 15.92ZM110.009 15.92C110.009 19.85 106.829 23.03 102.899 23.03C98.9687 23.03 95.7887 19.85 95.7887 15.92C95.7887 11.99 98.9687 8.81 102.899 8.81C106.829 8.81 110.009 11.99 110.009 15.92Z" fill="#19191A"/>
</svg>
