<svg width="366" height="108" viewBox="0 0 366 108" fill="none" xmlns="http://www.w3.org/2000/svg">
<g clip-path="url(#clip0_15_103)">
<path d="M126.2 84L148.6 27.52H159.96L182.12 84H168.84L151.88 37.12H156.44L139.24 84H126.2ZM138.92 73.76V63.52H169.72V73.76H138.92ZM187.679 84V45.12H199.919V84H187.679ZM212.559 84V61.28C212.559 59.3067 211.946 57.7867 210.719 56.72C209.546 55.6 208.079 55.04 206.319 55.04C205.093 55.04 203.999 55.3067 203.039 55.84C202.079 56.32 201.306 57.0133 200.719 57.92C200.186 58.8267 199.919 59.9467 199.919 61.28L195.199 59.2C195.199 56.1067 195.866 53.4667 197.199 51.28C198.533 49.04 200.346 47.3333 202.639 46.16C204.933 44.9333 207.519 44.32 210.399 44.32C213.119 44.32 215.546 44.9333 217.679 46.16C219.866 47.3867 221.599 49.0933 222.879 51.28C224.159 53.4667 224.799 56.08 224.799 59.12V84H212.559ZM237.439 84V61.28C237.439 59.3067 236.826 57.7867 235.599 56.72C234.426 55.6 232.959 55.04 231.199 55.04C229.973 55.04 228.879 55.3067 227.919 55.84C226.959 56.32 226.186 57.0133 225.599 57.92C225.066 58.8267 224.799 59.9467 224.799 61.28L217.759 60.32C217.866 57.0133 218.639 54.1867 220.079 51.84C221.573 49.44 223.519 47.6 225.919 46.32C228.373 44.9867 231.119 44.32 234.159 44.32C237.146 44.32 239.786 44.96 242.079 46.24C244.426 47.4667 246.266 49.2533 247.599 51.6C248.986 53.8933 249.679 56.6667 249.679 59.92V84H237.439ZM257.523 84V45.12H269.763V84H257.523ZM263.683 39.76C261.763 39.76 260.163 39.12 258.883 37.84C257.656 36.5067 257.043 34.9067 257.043 33.04C257.043 31.12 257.656 29.52 258.883 28.24C260.163 26.96 261.763 26.32 263.683 26.32C265.603 26.32 267.176 26.96 268.403 28.24C269.63 29.52 270.243 31.12 270.243 33.04C270.243 34.9067 269.63 36.5067 268.403 37.84C267.176 39.12 265.603 39.76 263.683 39.76ZM304.063 84V61.84C304.063 59.8133 303.423 58.1867 302.143 56.96C300.916 55.68 299.343 55.04 297.423 55.04C296.089 55.04 294.916 55.3333 293.903 55.92C292.889 56.4533 292.089 57.2533 291.503 58.32C290.916 59.3333 290.623 60.5067 290.623 61.84L285.903 59.52C285.903 56.48 286.569 53.8133 287.903 51.52C289.236 49.2267 291.076 47.4667 293.423 46.24C295.823 44.96 298.516 44.32 301.503 44.32C304.383 44.32 306.916 45.0133 309.103 46.4C311.343 47.7333 313.103 49.52 314.383 51.76C315.663 54 316.302 56.4533 316.302 59.12V84H304.063ZM278.383 84V45.12H290.623V84H278.383ZM342.884 84.88C338.884 84.88 335.257 84 332.004 82.24C328.804 80.4267 326.27 77.9733 324.404 74.88C322.537 71.7867 321.604 68.32 321.604 64.48C321.604 60.64 322.537 57.2 324.404 54.16C326.27 51.12 328.804 48.72 332.004 46.96C335.204 45.1467 338.83 44.24 342.884 44.24C346.937 44.24 350.564 45.12 353.764 46.88C356.964 48.64 359.497 51.0667 361.364 54.16C363.23 57.2 364.164 60.64 364.164 64.48C364.164 68.32 363.23 71.7867 361.364 74.88C359.497 77.9733 356.964 80.4267 353.764 82.24C350.564 84 346.937 84.88 342.884 84.88ZM342.884 73.76C344.644 73.76 346.19 73.3867 347.524 72.64C348.857 71.84 349.87 70.7467 350.564 69.36C351.31 67.92 351.684 66.2933 351.684 64.48C351.684 62.6667 351.31 61.0933 350.564 59.76C349.817 58.3733 348.777 57.3067 347.444 56.56C346.164 55.76 344.644 55.36 342.884 55.36C341.177 55.36 339.657 55.76 338.324 56.56C336.99 57.3067 335.95 58.3733 335.204 59.76C334.457 61.1467 334.084 62.7467 334.084 64.56C334.084 66.32 334.457 67.92 335.204 69.36C335.95 70.7467 336.99 71.84 338.324 72.64C339.657 73.3867 341.177 73.76 342.884 73.76Z" fill="white"/>
<rect width="108" height="108" rx="20" fill="#B0EB5F"/>
<path d="M80 67.25H67.235L54.8492 44.75L41.5787 68.125L48.9091 64.875H54.8492V67.25L35.6386 78H23L54.8492 24L80 67.25Z" fill="#151718"/>
<path d="M58.1353 60.375L54.8492 54.5L51.4368 60.375H58.1353Z" fill="#151718"/>
</g>
<defs>
<clipPath id="clip0_15_103">
<rect width="366" height="108" fill="white"/>
</clipPath>
</defs>
</svg>
