<svg width="349" height="102" viewBox="0 0 349 102" fill="none" xmlns="http://www.w3.org/2000/svg">
<rect width="349" height="102" fill="white"/>
<path d="M131.2 81.9999H119.665L137.24 31.0908H151.111L168.661 81.9999H157.126L144.374 42.7244H143.977L131.2 81.9999ZM130.479 61.9893H157.723V70.3913H130.479V61.9893ZM174.589 81.9999V43.8181H184.681V50.5546H185.129C185.924 48.3174 187.25 46.5525 189.106 45.2599C190.962 43.9673 193.183 43.321 195.768 43.321C198.386 43.321 200.615 43.9756 202.455 45.2847C204.294 46.5774 205.521 48.334 206.134 50.5546H206.532C207.31 48.3671 208.719 46.6188 210.757 45.3096C212.812 43.9838 215.24 43.321 218.041 43.321C221.604 43.321 224.496 44.4561 226.716 46.7265C228.953 48.9803 230.072 52.1787 230.072 56.3217V81.9999H219.507V58.4097C219.507 56.2885 218.944 54.6976 217.817 53.637C216.69 52.5764 215.282 52.0461 213.591 52.0461C211.669 52.0461 210.169 52.6593 209.092 53.8856C208.015 55.0953 207.476 56.6945 207.476 58.6832V81.9999H197.21V58.186C197.21 56.3134 196.671 54.8219 195.594 53.7116C194.534 52.6013 193.133 52.0461 191.393 52.0461C190.217 52.0461 189.156 52.3444 188.211 52.941C187.283 53.521 186.546 54.3413 185.999 55.4019C185.452 56.446 185.179 57.6723 185.179 59.0809V81.9999H174.589ZM238.437 81.9999V43.8181H249.026V81.9999H238.437ZM243.756 38.8962C242.182 38.8962 240.831 38.3742 239.705 37.3302C238.594 36.2696 238.039 35.0018 238.039 33.5269C238.039 32.0686 238.594 30.8174 239.705 29.7734C240.831 28.7128 242.182 28.1825 243.756 28.1825C245.331 28.1825 246.673 28.7128 247.783 29.7734C248.91 30.8174 249.474 32.0686 249.474 33.5269C249.474 35.0018 248.91 36.2696 247.783 37.3302C246.673 38.3742 245.331 38.8962 243.756 38.8962ZM268.099 59.9261V81.9999H257.509V43.8181H267.601V50.5546H268.049C268.894 48.334 270.311 46.5774 272.3 45.2847C274.288 43.9756 276.699 43.321 279.533 43.321C282.185 43.321 284.497 43.901 286.469 45.061C288.441 46.2211 289.974 47.8783 291.067 50.0326C292.161 52.1704 292.708 54.7225 292.708 57.6889V81.9999H282.118V59.5781C282.135 57.2414 281.538 55.4185 280.329 54.1093C279.119 52.7836 277.453 52.1207 275.332 52.1207C273.907 52.1207 272.648 52.4273 271.554 53.0404C270.477 53.6536 269.631 54.5485 269.018 55.7251C268.422 56.8851 268.115 58.2855 268.099 59.9261ZM318.305 82.7457C314.444 82.7457 311.105 81.9254 308.288 80.2847C305.487 78.6275 303.324 76.324 301.8 73.3742C300.275 70.4078 299.513 66.9692 299.513 63.0582C299.513 59.114 300.275 55.6671 301.8 52.7173C303.324 49.7509 305.487 47.4474 308.288 45.8068C311.105 44.1496 314.444 43.321 318.305 43.321C322.167 43.321 325.498 44.1496 328.298 45.8068C331.116 47.4474 333.286 49.7509 334.811 52.7173C336.336 55.6671 337.098 59.114 337.098 63.0582C337.098 66.9692 336.336 70.4078 334.811 73.3742C333.286 76.324 331.116 78.6275 328.298 80.2847C325.498 81.9254 322.167 82.7457 318.305 82.7457ZM318.355 74.5426C320.112 74.5426 321.578 74.0454 322.755 73.0511C323.932 72.0402 324.818 70.6647 325.415 68.9247C326.028 67.1846 326.335 65.2042 326.335 62.9836C326.335 60.763 326.028 58.7826 325.415 57.0426C324.818 55.3025 323.932 53.927 322.755 52.9161C321.578 51.9052 320.112 51.3998 318.355 51.3998C316.582 51.3998 315.09 51.9052 313.881 52.9161C312.688 53.927 311.784 55.3025 311.171 57.0426C310.575 58.7826 310.276 60.763 310.276 62.9836C310.276 65.2042 310.575 67.1846 311.171 68.9247C311.784 70.6647 312.688 72.0402 313.881 73.0511C315.09 74.0454 316.582 74.5426 318.355 74.5426Z" fill="#10223D"/>
<path d="M29.9401 9.2605C31.295 4.8449 36.9219 3.5519 40.0684 6.93309L96.1166 67.1606C99.2632 70.5418 97.5696 76.0613 93.0681 77.0957L12.8854 95.5211C8.38396 96.5555 4.45076 92.329 5.80568 87.9134L29.9401 9.2605Z" fill="url(#paint0_linear_1_185)"/>
<path fill-rule="evenodd" clip-rule="evenodd" d="M54.4769 22.416L38.9337 36.3254C36.4643 38.5352 32.6712 38.3247 30.4614 35.8554L23.9963 28.6309L29.9401 9.26049C31.295 4.84489 36.9218 3.55189 40.0684 6.93308L54.4769 22.416Z" fill="white" fill-opacity="0.35"/>
<path fill-rule="evenodd" clip-rule="evenodd" d="M81.0305 79.8618L31.2803 91.2941L43.6327 67.333C45.1511 64.3876 48.7697 63.2308 51.715 64.7492L81.0305 79.8618Z" fill="white" fill-opacity="0.35"/>
<defs>
<linearGradient id="paint0_linear_1_185" x1="64.5" y1="12.5001" x2="11.5" y2="113.5" gradientUnits="userSpaceOnUse">
<stop stop-color="#6366F1"/>
<stop offset="1" stop-color="#63D7F1"/>
</linearGradient>
</defs>
</svg>
