<svg width="413" height="101" viewBox="0 0 413 101" fill="none" xmlns="http://www.w3.org/2000/svg">
<path d="M129.2 60.9999H117.665L135.24 10.0908H149.111L166.661 60.9999H155.126L142.374 21.7244H141.977L129.2 60.9999ZM128.479 40.9893H155.723V49.3913H128.479V40.9893ZM172.589 60.9999V22.8181H182.681V29.5546H183.129C183.924 27.3174 185.25 25.5525 187.106 24.2599C188.962 22.9673 191.183 22.321 193.768 22.321C196.386 22.321 198.615 22.9756 200.455 24.2847C202.294 25.5774 203.521 27.334 204.134 29.5546H204.532C205.31 27.3671 206.719 25.6188 208.757 24.3096C210.812 22.9838 213.24 22.321 216.041 22.321C219.604 22.321 222.496 23.4561 224.716 25.7265C226.953 27.9803 228.072 31.1787 228.072 35.3217V60.9999H217.507V37.4097C217.507 35.2885 216.944 33.6976 215.817 32.637C214.69 31.5764 213.282 31.0461 211.591 31.0461C209.669 31.0461 208.169 31.6593 207.092 32.8856C206.015 34.0953 205.476 35.6945 205.476 37.6832V60.9999H195.21V37.186C195.21 35.3134 194.671 33.8219 193.594 32.7116C192.534 31.6013 191.133 31.0461 189.393 31.0461C188.217 31.0461 187.156 31.3444 186.211 31.941C185.283 32.521 184.546 33.3413 183.999 34.4019C183.452 35.446 183.179 36.6723 183.179 38.0809V60.9999H172.589ZM236.437 60.9999V22.8181H247.026V60.9999H236.437ZM241.756 17.8962C240.182 17.8962 238.831 17.3742 237.705 16.3302C236.594 15.2696 236.039 14.0018 236.039 12.5269C236.039 11.0686 236.594 9.81741 237.705 8.77338C238.831 7.71277 240.182 7.18246 241.756 7.18246C243.331 7.18246 244.673 7.71277 245.783 8.77338C246.91 9.81741 247.474 11.0686 247.474 12.5269C247.474 14.0018 246.91 15.2696 245.783 16.3302C244.673 17.3742 243.331 17.8962 241.756 17.8962ZM266.099 38.9261V60.9999H255.509V22.8181H265.601V29.5546H266.049C266.894 27.334 268.311 25.5774 270.3 24.2847C272.288 22.9756 274.699 22.321 277.533 22.321C280.185 22.321 282.497 22.901 284.469 24.061C286.441 25.2211 287.974 26.8783 289.067 29.0326C290.161 31.1704 290.708 33.7225 290.708 36.6889V60.9999H280.118V38.5781C280.135 36.2414 279.538 34.4185 278.329 33.1093C277.119 31.7836 275.453 31.1207 273.332 31.1207C271.907 31.1207 270.648 31.4273 269.554 32.0404C268.477 32.6536 267.631 33.5485 267.018 34.7251C266.422 35.8851 266.115 37.2855 266.099 38.9261ZM316.305 61.7457C312.444 61.7457 309.105 60.9254 306.288 59.2847C303.487 57.6275 301.324 55.324 299.8 52.3742C298.275 49.4078 297.513 45.9692 297.513 42.0582C297.513 38.114 298.275 34.6671 299.8 31.7173C301.324 28.7509 303.487 26.4474 306.288 24.8068C309.105 23.1496 312.444 22.321 316.305 22.321C320.167 22.321 323.498 23.1496 326.298 24.8068C329.116 26.4474 331.286 28.7509 332.811 31.7173C334.336 34.6671 335.098 38.114 335.098 42.0582C335.098 45.9692 334.336 49.4078 332.811 52.3742C331.286 55.324 329.116 57.6275 326.298 59.2847C323.498 60.9254 320.167 61.7457 316.305 61.7457ZM316.355 53.5426C318.112 53.5426 319.578 53.0454 320.755 52.0511C321.932 51.0402 322.818 49.6647 323.415 47.9247C324.028 46.1846 324.335 44.2042 324.335 41.9836C324.335 39.763 324.028 37.7826 323.415 36.0426C322.818 34.3025 321.932 32.927 320.755 31.9161C319.578 30.9052 318.112 30.3998 316.355 30.3998C314.582 30.3998 313.09 30.9052 311.881 31.9161C310.688 32.927 309.784 34.3025 309.171 36.0426C308.575 37.7826 308.276 39.763 308.276 41.9836C308.276 44.2042 308.575 46.1846 309.171 47.9247C309.784 49.6647 310.688 51.0402 311.881 52.0511C313.09 53.0454 314.582 53.5426 316.355 53.5426Z" fill="#10223D"/>
<path d="M27.9401 7.2605C29.295 2.8449 34.9219 1.5519 38.0684 4.93309L94.1166 65.1606C97.2632 68.5418 95.5696 74.0613 91.0681 75.0957L10.8854 93.5211C6.38396 94.5555 2.45076 90.329 3.80568 85.9134L27.9401 7.2605Z" fill="url(#paint0_linear_14_325)"/>
<path fill-rule="evenodd" clip-rule="evenodd" d="M52.4769 20.416L36.9337 34.3254C34.4643 36.5352 30.6712 36.3247 28.4614 33.8554L21.9963 26.6309L27.9401 7.26049C29.295 2.84489 34.9218 1.55189 38.0684 4.93308L52.4769 20.416Z" fill="white" fill-opacity="0.35"/>
<path fill-rule="evenodd" clip-rule="evenodd" d="M79.0305 77.8618L29.2803 89.2941L41.6327 65.333C43.1511 62.3876 46.7697 61.2308 49.715 62.7492L79.0305 77.8618Z" fill="white" fill-opacity="0.35"/>
<path d="M117.918 88.9999V71.5454H128.741V73.8124H120.551V79.1306H127.966V81.3891H120.551V88.9999H117.918ZM136.329 89.2641C135.102 89.2641 134.031 88.9829 133.116 88.4204C132.201 87.8579 131.491 87.071 130.985 86.0596C130.479 85.0482 130.227 83.8664 130.227 82.5141C130.227 81.1562 130.479 79.9687 130.985 78.9516C131.491 77.9346 132.201 77.1448 133.116 76.5823C134.031 76.0198 135.102 75.7386 136.329 75.7386C137.556 75.7386 138.627 76.0198 139.542 76.5823C140.457 77.1448 141.167 77.9346 141.673 78.9516C142.178 79.9687 142.431 81.1562 142.431 82.5141C142.431 83.8664 142.178 85.0482 141.673 86.0596C141.167 87.071 140.457 87.8579 139.542 88.4204C138.627 88.9829 137.556 89.2641 136.329 89.2641ZM136.337 87.1249C137.133 87.1249 137.792 86.9147 138.315 86.4943C138.837 86.0738 139.224 85.5141 139.474 84.8153C139.729 84.1164 139.857 83.3465 139.857 82.5056C139.857 81.6704 139.729 80.9033 139.474 80.2045C139.224 79.4999 138.837 78.9346 138.315 78.5085C137.792 78.0823 137.133 77.8693 136.337 77.8693C135.536 77.8693 134.871 78.0823 134.343 78.5085C133.82 78.9346 133.431 79.4999 133.175 80.2045C132.925 80.9033 132.8 81.6704 132.8 82.5056C132.8 83.3465 132.925 84.1164 133.175 84.8153C133.431 85.5141 133.82 86.0738 134.343 86.4943C134.871 86.9147 135.536 87.1249 136.337 87.1249ZM150.79 89.2641C149.563 89.2641 148.491 88.9829 147.577 88.4204C146.662 87.8579 145.952 87.071 145.446 86.0596C144.94 85.0482 144.688 83.8664 144.688 82.5141C144.688 81.1562 144.94 79.9687 145.446 78.9516C145.952 77.9346 146.662 77.1448 147.577 76.5823C148.491 76.0198 149.563 75.7386 150.79 75.7386C152.017 75.7386 153.088 76.0198 154.003 76.5823C154.918 77.1448 155.628 77.9346 156.134 78.9516C156.639 79.9687 156.892 81.1562 156.892 82.5141C156.892 83.8664 156.639 85.0482 156.134 86.0596C155.628 87.071 154.918 87.8579 154.003 88.4204C153.088 88.9829 152.017 89.2641 150.79 89.2641ZM150.798 87.1249C151.594 87.1249 152.253 86.9147 152.776 86.4943C153.298 86.0738 153.685 85.5141 153.935 84.8153C154.19 84.1164 154.318 83.3465 154.318 82.5056C154.318 81.6704 154.19 80.9033 153.935 80.2045C153.685 79.4999 153.298 78.9346 152.776 78.5085C152.253 78.0823 151.594 77.8693 150.798 77.8693C149.997 77.8693 149.332 78.0823 148.804 78.5085C148.281 78.9346 147.892 79.4999 147.636 80.2045C147.386 80.9033 147.261 81.6704 147.261 82.5056C147.261 83.3465 147.386 84.1164 147.636 84.8153C147.892 85.5141 148.281 86.0738 148.804 86.4943C149.332 86.9147 149.997 87.1249 150.798 87.1249ZM164.637 89.2556C163.58 89.2556 162.637 88.9857 161.808 88.446C160.984 87.9005 160.336 87.1249 159.864 86.1193C159.398 85.1079 159.165 83.8948 159.165 82.4801C159.165 81.0653 159.401 79.8551 159.873 78.8494C160.35 77.8437 161.004 77.0738 161.833 76.5397C162.663 76.0056 163.603 75.7386 164.654 75.7386C165.467 75.7386 166.12 75.8749 166.614 76.1477C167.114 76.4147 167.501 76.7272 167.773 77.0852C168.052 77.4431 168.268 77.7585 168.421 78.0312H168.575V71.5454H171.123V88.9999H168.634V86.963H168.421C168.268 87.2414 168.046 87.5596 167.756 87.9176C167.472 88.2755 167.08 88.588 166.58 88.8551C166.08 89.1221 165.433 89.2556 164.637 89.2556ZM165.2 87.0823C165.933 87.0823 166.552 86.8891 167.058 86.5028C167.569 86.1107 167.955 85.5681 168.217 84.8749C168.484 84.1818 168.617 83.3749 168.617 82.4545C168.617 81.5454 168.487 80.7499 168.225 80.0681C167.964 79.3863 167.58 78.8551 167.075 78.4744C166.569 78.0937 165.944 77.9033 165.2 77.9033C164.433 77.9033 163.793 78.1022 163.282 78.4999C162.771 78.8977 162.384 79.4403 162.123 80.1278C161.867 80.8153 161.739 81.5908 161.739 82.4545C161.739 83.3295 161.87 84.1164 162.131 84.8153C162.393 85.5141 162.779 86.0681 163.29 86.4772C163.808 86.8806 164.444 87.0823 165.2 87.0823ZM184.921 89.2897C184.092 89.2897 183.342 89.1363 182.671 88.8295C182.001 88.517 181.469 88.0653 181.077 87.4744C180.691 86.8835 180.498 86.159 180.498 85.3011C180.498 84.5624 180.64 83.9545 180.924 83.4772C181.208 82.9999 181.592 82.6221 182.075 82.3437C182.558 82.0653 183.097 81.8551 183.694 81.713C184.29 81.571 184.898 81.463 185.518 81.3891C186.302 81.2982 186.938 81.2244 187.427 81.1676C187.915 81.1051 188.271 81.0056 188.492 80.8693C188.714 80.7329 188.825 80.5113 188.825 80.2045V80.1448C188.825 79.4005 188.614 78.8238 188.194 78.4147C187.779 78.0056 187.16 77.8011 186.336 77.8011C185.478 77.8011 184.802 77.9914 184.308 78.3721C183.819 78.7471 183.481 79.1647 183.293 79.6249L180.898 79.0795C181.183 78.284 181.597 77.642 182.143 77.1533C182.694 76.659 183.327 76.3011 184.043 76.0795C184.759 75.8522 185.512 75.7386 186.302 75.7386C186.825 75.7386 187.379 75.8011 187.964 75.9261C188.555 76.0454 189.106 76.267 189.617 76.5908C190.134 76.9147 190.558 77.3778 190.887 77.9801C191.217 78.5766 191.381 79.3522 191.381 80.3068V88.9999H188.893V87.2102H188.79C188.626 87.5397 188.379 87.8636 188.049 88.1818C187.719 88.4999 187.296 88.7641 186.779 88.9744C186.262 89.1846 185.643 89.2897 184.921 89.2897ZM185.475 87.2443C186.18 87.2443 186.782 87.1051 187.282 86.8266C187.788 86.5482 188.171 86.1846 188.433 85.7357C188.7 85.2812 188.833 84.7954 188.833 84.2783V82.5908C188.742 82.6818 188.566 82.767 188.305 82.8465C188.049 82.9204 187.756 82.9857 187.427 83.0426C187.097 83.0937 186.776 83.142 186.464 83.1874C186.151 83.2272 185.89 83.2613 185.68 83.2897C185.185 83.3522 184.734 83.4573 184.325 83.6051C183.921 83.7528 183.597 83.9658 183.353 84.2443C183.114 84.517 182.995 84.8806 182.995 85.3352C182.995 85.9658 183.228 86.4431 183.694 86.767C184.16 87.0852 184.754 87.2443 185.475 87.2443ZM197.324 81.2272V88.9999H194.776V75.909H197.222V78.0397H197.384C197.685 77.3465 198.156 76.7897 198.798 76.3693C199.446 75.9488 200.261 75.7386 201.244 75.7386C202.136 75.7386 202.918 75.9261 203.588 76.3011C204.259 76.6704 204.778 77.2215 205.148 77.9545C205.517 78.6874 205.702 79.5937 205.702 80.6732V88.9999H203.153V80.9801C203.153 80.0312 202.906 79.2897 202.412 78.7556C201.918 78.2158 201.239 77.946 200.375 77.946C199.784 77.946 199.259 78.0738 198.798 78.3295C198.344 78.5852 197.983 78.9602 197.716 79.4545C197.455 79.9431 197.324 80.534 197.324 81.2272ZM214.02 89.2556C212.963 89.2556 212.02 88.9857 211.19 88.446C210.366 87.9005 209.719 87.1249 209.247 86.1193C208.781 85.1079 208.548 83.8948 208.548 82.4801C208.548 81.0653 208.784 79.8551 209.256 78.8494C209.733 77.8437 210.386 77.0738 211.216 76.5397C212.045 76.0056 212.986 75.7386 214.037 75.7386C214.849 75.7386 215.503 75.8749 215.997 76.1477C216.497 76.4147 216.884 76.7272 217.156 77.0852C217.435 77.4431 217.651 77.7585 217.804 78.0312H217.957V71.5454H220.506V88.9999H218.017V86.963H217.804C217.651 87.2414 217.429 87.5596 217.139 87.9176C216.855 88.2755 216.463 88.588 215.963 88.8551C215.463 89.1221 214.815 89.2556 214.02 89.2556ZM214.582 87.0823C215.315 87.0823 215.935 86.8891 216.44 86.5028C216.952 86.1107 217.338 85.5681 217.599 84.8749C217.866 84.1818 218 83.3749 218 82.4545C218 81.5454 217.869 80.7499 217.608 80.0681C217.347 79.3863 216.963 78.8551 216.457 78.4744C215.952 78.0937 215.327 77.9033 214.582 77.9033C213.815 77.9033 213.176 78.1022 212.665 78.4999C212.153 78.8977 211.767 79.4403 211.506 80.1278C211.25 80.8153 211.122 81.5908 211.122 82.4545C211.122 83.3295 211.253 84.1164 211.514 84.8153C211.776 85.5141 212.162 86.0681 212.673 86.4772C213.19 86.8806 213.827 87.0823 214.582 87.0823ZM230.699 88.9999V71.5454H241.523V73.8124H233.332V79.1306H240.747V81.3891H233.332V88.9999H230.699ZM244.557 88.9999V75.909H247.105V88.9999H244.557ZM245.844 73.8891C245.401 73.8891 245.02 73.7414 244.702 73.446C244.389 73.1448 244.233 72.7869 244.233 72.3721C244.233 71.9516 244.389 71.5937 244.702 71.2982C245.02 70.9971 245.401 70.8465 245.844 70.8465C246.287 70.8465 246.665 70.9971 246.977 71.2982C247.295 71.5937 247.455 71.9516 247.455 72.3721C247.455 72.7869 247.295 73.1448 246.977 73.446C246.665 73.7414 246.287 73.8891 245.844 73.8891ZM256.644 75.909V77.9545H249.494V75.909H256.644ZM251.411 72.7727H253.96V85.1562C253.96 85.6505 254.033 86.0227 254.181 86.2727C254.329 86.517 254.519 86.6846 254.752 86.7755C254.991 86.8607 255.249 86.9033 255.528 86.9033C255.732 86.9033 255.911 86.8891 256.065 86.8607C256.218 86.8323 256.337 86.8096 256.423 86.7926L256.883 88.8977C256.735 88.9545 256.525 89.0113 256.252 89.0681C255.979 89.1306 255.638 89.1647 255.229 89.1704C254.559 89.1818 253.934 89.0624 253.354 88.8124C252.775 88.5624 252.306 88.1761 251.948 87.6533C251.59 87.1306 251.411 86.4744 251.411 85.6846V72.7727ZM262.011 81.2272V88.9999H259.463V75.909H261.909V78.0397H262.071C262.372 77.3465 262.844 76.7897 263.486 76.3693C264.134 75.9488 264.949 75.7386 265.932 75.7386C266.824 75.7386 267.605 75.9261 268.276 76.3011C268.946 76.6704 269.466 77.2215 269.835 77.9545C270.205 78.6874 270.389 79.5937 270.389 80.6732V88.9999H267.841V80.9801C267.841 80.0312 267.594 79.2897 267.099 78.7556C266.605 78.2158 265.926 77.946 265.062 77.946C264.472 77.946 263.946 78.0738 263.486 78.3295C263.031 78.5852 262.67 78.9602 262.403 79.4545C262.142 79.9431 262.011 80.534 262.011 81.2272ZM279.449 89.2641C278.159 89.2641 277.048 88.9886 276.116 88.4374C275.19 87.8806 274.474 87.0994 273.969 86.0937C273.469 85.0823 273.219 83.8977 273.219 82.5397C273.219 81.1988 273.469 80.017 273.969 78.9943C274.474 77.9715 275.179 77.1732 276.082 76.5994C276.991 76.0255 278.054 75.7386 279.27 75.7386C280.009 75.7386 280.724 75.8607 281.418 76.1051C282.111 76.3494 282.733 76.7329 283.284 77.2556C283.835 77.7783 284.27 78.4573 284.588 79.2926C284.906 80.1221 285.065 81.1306 285.065 82.3181V83.2215H274.659V81.3124H282.568C282.568 80.642 282.432 80.0482 282.159 79.5312C281.886 79.0085 281.503 78.5965 281.009 78.2954C280.52 77.9943 279.946 77.8437 279.287 77.8437C278.571 77.8437 277.946 78.0198 277.412 78.3721C276.884 78.7187 276.474 79.1732 276.185 79.7357C275.901 80.2926 275.759 80.8977 275.759 81.5511V83.0426C275.759 83.9176 275.912 84.6619 276.219 85.2755C276.531 85.8891 276.966 86.3579 277.523 86.6818C278.08 86.9999 278.73 87.159 279.474 87.159C279.957 87.159 280.398 87.0908 280.795 86.9545C281.193 86.8124 281.537 86.6022 281.827 86.3238C282.116 86.0454 282.338 85.7016 282.491 85.2926L284.903 85.7272C284.71 86.4374 284.364 87.0596 283.864 87.5937C283.369 88.1221 282.747 88.534 281.997 88.8295C281.253 89.1193 280.403 89.2641 279.449 89.2641ZM297.702 79.1051L295.393 79.5141C295.296 79.2187 295.143 78.9374 294.933 78.6704C294.728 78.4033 294.45 78.1846 294.097 78.0141C293.745 77.8437 293.305 77.7585 292.776 77.7585C292.055 77.7585 291.452 77.9204 290.969 78.2443C290.487 78.5624 290.245 78.9744 290.245 79.4801C290.245 79.9176 290.407 80.2698 290.731 80.5369C291.055 80.8039 291.577 81.0227 292.299 81.1931L294.379 81.6704C295.583 81.9488 296.481 82.3778 297.072 82.9573C297.663 83.5369 297.958 84.2897 297.958 85.2158C297.958 85.9999 297.731 86.6988 297.276 87.3124C296.827 87.9204 296.2 88.3977 295.393 88.7443C294.592 89.0908 293.663 89.2641 292.606 89.2641C291.14 89.2641 289.944 88.9516 289.018 88.3266C288.092 87.696 287.523 86.8011 287.313 85.642L289.776 85.267C289.93 85.909 290.245 86.3948 290.722 86.7244C291.2 87.0482 291.822 87.2102 292.589 87.2102C293.424 87.2102 294.092 87.0369 294.592 86.6903C295.092 86.338 295.342 85.909 295.342 85.4033C295.342 84.9943 295.188 84.6505 294.881 84.3721C294.58 84.0937 294.117 83.8835 293.492 83.7414L291.276 83.2556C290.055 82.9772 289.151 82.534 288.566 81.9261C287.987 81.3181 287.697 80.5482 287.697 79.6164C287.697 78.8437 287.913 78.1676 288.344 77.588C288.776 77.0085 289.373 76.5568 290.134 76.2329C290.896 75.9033 291.768 75.7386 292.751 75.7386C294.165 75.7386 295.279 76.0454 296.092 76.659C296.904 77.267 297.441 78.0823 297.702 79.1051ZM310.57 79.1051L308.26 79.5141C308.163 79.2187 308.01 78.9374 307.8 78.6704C307.595 78.4033 307.317 78.1846 306.964 78.0141C306.612 77.8437 306.172 77.7585 305.643 77.7585C304.922 77.7585 304.32 77.9204 303.837 78.2443C303.354 78.5624 303.112 78.9744 303.112 79.4801C303.112 79.9176 303.274 80.2698 303.598 80.5369C303.922 80.8039 304.445 81.0227 305.166 81.1931L307.246 81.6704C308.45 81.9488 309.348 82.3778 309.939 82.9573C310.53 83.5369 310.825 84.2897 310.825 85.2158C310.825 85.9999 310.598 86.6988 310.143 87.3124C309.695 87.9204 309.067 88.3977 308.26 88.7443C307.459 89.0908 306.53 89.2641 305.473 89.2641C304.007 89.2641 302.811 88.9516 301.885 88.3266C300.959 87.696 300.391 86.8011 300.18 85.642L302.643 85.267C302.797 85.909 303.112 86.3948 303.589 86.7244C304.067 87.0482 304.689 87.2102 305.456 87.2102C306.291 87.2102 306.959 87.0369 307.459 86.6903C307.959 86.338 308.209 85.909 308.209 85.4033C308.209 84.9943 308.055 84.6505 307.749 84.3721C307.447 84.0937 306.984 83.8835 306.359 83.7414L304.143 83.2556C302.922 82.9772 302.018 82.534 301.433 81.9261C300.854 81.3181 300.564 80.5482 300.564 79.6164C300.564 78.8437 300.78 78.1676 301.212 77.588C301.643 77.0085 302.24 76.5568 303.001 76.2329C303.763 75.9033 304.635 75.7386 305.618 75.7386C307.033 75.7386 308.146 76.0454 308.959 76.659C309.771 77.267 310.308 78.0823 310.57 79.1051ZM319.322 73.8124V71.5454H332.831V73.8124H327.385V88.9999H324.76V73.8124H319.322ZM334.252 88.9999V75.909H336.715V77.9886H336.852C337.09 77.284 337.511 76.7301 338.113 76.3266C338.721 75.9176 339.408 75.713 340.175 75.713C340.335 75.713 340.522 75.7187 340.738 75.7301C340.96 75.7414 341.133 75.7556 341.258 75.7727V78.2102C341.156 78.1818 340.974 78.1505 340.712 78.1164C340.451 78.0766 340.19 78.0568 339.928 78.0568C339.326 78.0568 338.789 78.1846 338.317 78.4403C337.852 78.6903 337.482 79.0397 337.21 79.4886C336.937 79.9318 336.8 80.4374 336.8 81.0056V88.9999H334.252ZM347.156 89.2897C346.326 89.2897 345.576 89.1363 344.906 88.8295C344.235 88.517 343.704 88.0653 343.312 87.4744C342.925 86.8835 342.732 86.159 342.732 85.3011C342.732 84.5624 342.874 83.9545 343.158 83.4772C343.442 82.9999 343.826 82.6221 344.309 82.3437C344.792 82.0653 345.332 81.8551 345.928 81.713C346.525 81.571 347.133 81.463 347.752 81.3891C348.536 81.2982 349.173 81.2244 349.661 81.1676C350.15 81.1051 350.505 81.0056 350.727 80.8693C350.948 80.7329 351.059 80.5113 351.059 80.2045V80.1448C351.059 79.4005 350.849 78.8238 350.428 78.4147C350.013 78.0056 349.394 77.8011 348.57 77.8011C347.712 77.8011 347.036 77.9914 346.542 78.3721C346.053 78.7471 345.715 79.1647 345.528 79.6249L343.133 79.0795C343.417 78.284 343.832 77.642 344.377 77.1533C344.928 76.659 345.562 76.3011 346.278 76.0795C346.994 75.8522 347.746 75.7386 348.536 75.7386C349.059 75.7386 349.613 75.8011 350.198 75.9261C350.789 76.0454 351.34 76.267 351.852 76.5908C352.369 76.9147 352.792 77.3778 353.121 77.9801C353.451 78.5766 353.616 79.3522 353.616 80.3068V88.9999H351.127V87.2102H351.025C350.86 87.5397 350.613 87.8636 350.283 88.1818C349.954 88.4999 349.531 88.7641 349.013 88.9744C348.496 89.1846 347.877 89.2897 347.156 89.2897ZM347.71 87.2443C348.414 87.2443 349.016 87.1051 349.516 86.8266C350.022 86.5482 350.406 86.1846 350.667 85.7357C350.934 85.2812 351.067 84.7954 351.067 84.2783V82.5908C350.977 82.6818 350.8 82.767 350.539 82.8465C350.283 82.9204 349.991 82.9857 349.661 83.0426C349.332 83.0937 349.011 83.142 348.698 83.1874C348.386 83.2272 348.124 83.2613 347.914 83.2897C347.42 83.3522 346.968 83.4573 346.559 83.6051C346.156 83.7528 345.832 83.9658 345.587 84.2443C345.349 84.517 345.229 84.8806 345.229 85.3352C345.229 85.9658 345.462 86.4431 345.928 86.767C346.394 87.0852 346.988 87.2443 347.71 87.2443ZM362.524 89.2641C361.257 89.2641 360.166 88.9772 359.251 88.4033C358.342 87.8238 357.643 87.0255 357.155 86.0085C356.666 84.9914 356.422 83.8266 356.422 82.5141C356.422 81.1846 356.672 80.0113 357.172 78.9943C357.672 77.9715 358.376 77.1732 359.286 76.5994C360.195 76.0255 361.266 75.7386 362.499 75.7386C363.493 75.7386 364.379 75.9232 365.158 76.2926C365.936 76.6562 366.564 77.1676 367.041 77.8266C367.524 78.4857 367.811 79.2556 367.902 80.1363H365.422C365.286 79.5227 364.973 78.9943 364.484 78.5511C364.001 78.1079 363.354 77.8863 362.541 77.8863C361.831 77.8863 361.209 78.0738 360.675 78.4488C360.146 78.8181 359.734 79.3465 359.439 80.034C359.143 80.7158 358.996 81.5227 358.996 82.4545C358.996 83.409 359.141 84.2329 359.43 84.9261C359.72 85.6193 360.129 86.1562 360.658 86.5369C361.192 86.9176 361.82 87.1079 362.541 87.1079C363.024 87.1079 363.462 87.0198 363.854 86.8437C364.251 86.6619 364.584 86.4033 364.851 86.0681C365.124 85.7329 365.314 85.3295 365.422 84.8579H367.902C367.811 85.7045 367.536 86.4602 367.075 87.1249C366.615 87.7897 365.999 88.3124 365.226 88.6931C364.459 89.0738 363.558 89.2641 362.524 89.2641ZM372.971 84.5596L372.954 81.4488H373.397L378.613 75.909H381.664L375.715 82.2158H375.315L372.971 84.5596ZM370.627 88.9999V71.5454H373.175V88.9999H370.627ZM378.894 88.9999L374.207 82.7783L375.962 80.9971L382.022 88.9999H378.894ZM389.089 89.2641C387.8 89.2641 386.689 88.9886 385.757 88.4374C384.831 87.8806 384.115 87.0994 383.609 86.0937C383.109 85.0823 382.859 83.8977 382.859 82.5397C382.859 81.1988 383.109 80.017 383.609 78.9943C384.115 77.9715 384.82 77.1732 385.723 76.5994C386.632 76.0255 387.695 75.7386 388.911 75.7386C389.649 75.7386 390.365 75.8607 391.058 76.1051C391.751 76.3494 392.374 76.7329 392.925 77.2556C393.476 77.7783 393.911 78.4573 394.229 79.2926C394.547 80.1221 394.706 81.1306 394.706 82.3181V83.2215H384.3V81.3124H392.209C392.209 80.642 392.072 80.0482 391.8 79.5312C391.527 79.0085 391.143 78.5965 390.649 78.2954C390.161 77.9943 389.587 77.8437 388.928 77.8437C388.212 77.8437 387.587 78.0198 387.053 78.3721C386.524 78.7187 386.115 79.1732 385.825 79.7357C385.541 80.2926 385.399 80.8977 385.399 81.5511V83.0426C385.399 83.9176 385.553 84.6619 385.859 85.2755C386.172 85.8891 386.607 86.3579 387.163 86.6818C387.72 86.9999 388.371 87.159 389.115 87.159C389.598 87.159 390.038 87.0908 390.436 86.9545C390.834 86.8124 391.178 86.6022 391.467 86.3238C391.757 86.0454 391.979 85.7016 392.132 85.2926L394.544 85.7272C394.351 86.4374 394.004 87.0596 393.504 87.5937C393.01 88.1221 392.388 88.534 391.638 88.8295C390.893 89.1193 390.044 89.2641 389.089 89.2641ZM397.533 88.9999V75.909H399.996V77.9886H400.133C400.371 77.284 400.792 76.7301 401.394 76.3266C402.002 75.9176 402.69 75.713 403.457 75.713C403.616 75.713 403.803 75.7187 404.019 75.7301C404.241 75.7414 404.414 75.7556 404.539 75.7727V78.2102C404.437 78.1818 404.255 78.1505 403.994 78.1164C403.732 78.0766 403.471 78.0568 403.21 78.0568C402.607 78.0568 402.07 78.1846 401.599 78.4403C401.133 78.6903 400.763 79.0397 400.491 79.4886C400.218 79.9318 400.082 80.4374 400.082 81.0056V88.9999H397.533Z" fill="#10223D"/>
<defs>
<linearGradient id="paint0_linear_14_325" x1="62.5" y1="10.5001" x2="9.5" y2="111.5" gradientUnits="userSpaceOnUse">
<stop stop-color="#6366F1"/>
<stop offset="1" stop-color="#63D7F1"/>
</linearGradient>
</defs>
</svg>
